<svg xmlns="http://www.w3.org/2000/svg" id="svg15" width="256" height="256" fill="#000" stroke="#000" stroke-width=".001" transform="scale(-1 1)" version="1.1" viewBox="-6.4 -6.4 76.8 76.8"><g id="SVGRepo_iconCarrier"><g id="robot"><circle id="circle3" cx="46" cy="8" r="1" style="fill:#83f9a2;fill-opacity:1"/><path id="path5" d="M5.7 14.46a1 1 0 0 0-1.414 0l-.767.768-.767-.767a1 1 0 0 0-1.414 1.414l.767.768-.767.767a1 1 0 1 0 1.414 1.414l.767-.767.767.767A1 1 0 0 0 5.7 17.41l-.767-.768.767-.767a1 1 0 0 0 0-1.414Z" style="fill:#83f9a2;fill-opacity:1"/><path id="path7" d="M58 45.018a1 1 0 1 0 1 1 1 1 0 0 0-1-1Z" style="fill:#83f9a2;fill-opacity:1"/><path id="path9" d="M43 23h-7a1 1 0 0 0-.707.293l-1 1a1 1 0 1 0 1.414 1.414l.707-.707h.863A1.98 1.98 0 0 0 37 26a2 2 0 0 0 4 0 1.98 1.98 0 0 0-.277-1H43a1 1 0 0 0 0-2Z" style="fill:#83f9a2;fill-opacity:1"/><path id="path11" d="M59 28h-2v-2a1 1 0 0 0-1-1h-1v-6.738a3 3 0 1 0-2 0v6.183A24.013 24.013 0 1 0 54.463 39H56a1 1 0 0 0 1-1v-2h2a1 1 0 0 0 1-1v-6a1 1 0 0 0-1-1Zm-36 0a2 2 0 1 1 2-2 2 2 0 0 1-2 2Zm31-13.556a1.001 1.001 0 1 1-1 1.001 1.002 1.002 0 0 1 1-1ZM32 38h2v2h-2Zm0 4h2v2h-2Zm23-5h-4a1 1 0 0 0 0 2h1.41A21.981 21.981 0 0 1 32 55.98V46h7a5 5 0 0 0 0-10h-7V12.04A21.852 21.852 0 0 1 51.06 25H51a1 1 0 0 0 0 2h4Zm-17 5v2h-2v-2Zm-2-2v-2h2v2Zm5.816 2A2.995 2.995 0 0 1 40 43.816V42ZM40 40v-1.816A2.995 2.995 0 0 1 41.816 40Zm18-6h-1v-4h1Z" style="fill:#83f9a2;fill-opacity:1"/></g></g></svg>