<?xml version="1.0" standalone="no"?>
<!DOCTYPE svg PUBLIC "-//W3C//DTD SVG 20010904//EN"
 "http://www.w3.org/TR/2001/REC-SVG-20010904/DTD/svg10.dtd">
<svg version="1.0" xmlns="http://www.w3.org/2000/svg"
 width="700.000000pt" height="700.000000pt" viewBox="0 0 700.000000 700.000000"
 preserveAspectRatio="xMidYMid meet">
<metadata>
Created by potrace 1.14, written by Peter Selinger 2001-2017
</metadata>
<g transform="translate(0.000000,700.000000) scale(0.100000,-0.100000)"
fill="#000000" stroke="none">
<path d="M4721 5754 c-86 -72 16 -202 107 -138 52 36 48 120 -8 149 -41 21
-64 19 -99 -11z"/>
<path d="M3104 5485 c-878 -124 -1600 -773 -1818 -1633 -41 -159 -57 -277 -63
-458 -12 -365 56 -697 211 -1019 312 -649 894 -1088 1613 -1217 110 -19 161
-23 363 -22 253 0 356 13 570 70 279 75 563 219 790 400 360 288 624 688 744
1127 l33 122 84 6 c46 3 92 9 102 13 34 16 47 60 47 166 l0 100 110 0 c104 0
112 1 135 25 l25 24 0 311 0 311 -25 24 c-23 24 -31 25 -135 25 l-110 0 0 100
c0 55 -5 111 -12 125 -16 36 -57 55 -118 55 l-50 0 0 308 0 307 31 14 c84 37
143 137 143 241 0 107 -56 199 -150 246 -55 27 -183 27 -238 0 -166 -82 -203
-308 -73 -438 19 -20 49 -42 66 -49 l31 -14 0 -275 0 -275 -64 121 c-222 423
-553 746 -981 955 -197 96 -366 151 -595 195 -121 22 -530 28 -666 9z m563
-180 c573 -75 1080 -387 1401 -862 51 -75 162 -273 162 -288 0 -6 -16 -19 -35
-28 -58 -28 -71 -87 -29 -136 l25 -31 202 -2 202 -3 0 -455 0 -455 -202 -3
-202 -2 -25 -31 c-29 -35 -32 -58 -12 -98 20 -38 55 -51 137 -51 l69 0 -6 -27
c-21 -92 -96 -294 -151 -404 -308 -624 -925 -1049 -1610 -1107 l-93 -8 0 452
0 452 363 4 c338 4 366 6 419 26 126 46 212 125 271 249 30 64 32 74 32 183 0
111 -1 117 -36 190 -57 119 -145 198 -268 240 -56 19 -85 20 -421 20 l-360 0
0 1095 0 1095 24 0 c14 0 78 -7 143 -15z m1884 -215 c29 -16 51 -67 44 -101
-13 -58 -92 -89 -141 -54 -92 64 -2 207 97 155z m-2804 -875 c48 -20 71 -41
94 -87 42 -82 11 -188 -67 -234 -123 -72 -274 13 -274 155 0 127 130 215 247
166z m3123 -715 l0 -180 -45 0 -45 0 0 180 0 180 45 0 45 0 0 -180z m-2190
-640 l0 -90 -90 0 -90 0 0 90 0 90 90 0 90 0 0 -90z m370 0 l0 -90 -95 0 -95
0 0 90 0 90 95 0 95 0 0 -90z m245 40 c38 -26 95 -101 95 -123 0 -4 -36 -7
-80 -7 l-80 0 0 80 c0 50 4 80 11 80 6 0 30 -14 54 -30z m-615 -400 l0 -90
-90 0 -90 0 0 90 0 90 90 0 90 0 0 -90z m370 0 l0 -90 -95 0 -95 0 0 90 0 90
95 0 95 0 0 -90z m340 79 c0 -21 -62 -99 -98 -124 -58 -39 -62 -35 -62 55 l0
80 80 0 c50 0 80 -4 80 -11z"/>
<path d="M3825 4308 c-31 -17 -115 -100 -131 -130 -20 -39 -17 -62 12 -97 21
-25 33 -31 65 -31 33 0 48 7 88 45 39 36 55 45 84 45 35 0 36 -1 27 -26 -17
-44 -11 -116 13 -159 31 -54 87 -85 157 -85 64 0 104 20 146 75 23 30 28 47
28 93 1 32 -3 67 -7 80 l-8 22 119 0 c113 0 121 1 146 25 39 36 37 94 -5 129
l-31 26 -341 0 c-229 -1 -349 -4 -362 -12z"/>
<path d="M719 5107 c-9 -7 -21 -22 -27 -34 -23 -41 -14 -72 34 -123 l47 -50
-47 -50 c-34 -37 -46 -57 -46 -80 0 -42 15 -67 51 -85 41 -22 83 -7 134 45
l39 39 47 -44 c40 -38 55 -45 88 -45 32 0 44 6 65 31 41 48 33 83 -32 151
l-35 37 41 45 c23 25 44 56 48 70 14 56 -28 106 -88 106 -33 0 -47 -8 -86 -44
l-47 -44 -47 44 c-39 36 -54 44 -85 44 -21 0 -45 -6 -54 -13z"/>
<path d="M5819 2297 c-44 -33 -50 -93 -15 -134 19 -22 32 -28 66 -28 34 0 47
6 66 28 35 41 29 101 -15 134 -21 16 -81 16 -102 0z"/>
</g>
</svg>
