<?xml version="1.0" standalone="no"?>
<!DOCTYPE svg PUBLIC "-//W3C//DTD SVG 20010904//EN"
 "http://www.w3.org/TR/2001/REC-SVG-20010904/DTD/svg10.dtd">
<svg version="1.0" xmlns="http://www.w3.org/2000/svg"
 width="700.000000pt" height="700.000000pt" viewBox="0 0 700.000000 700.000000"
 preserveAspectRatio="xMidYMid meet">
<metadata>
Created by potrace 1.14, written by Peter Selinger 2001-2017
</metadata>
<g transform="translate(0.000000,700.000000) scale(0.100000,-0.100000)"
fill="#000000" stroke="none">
<path d="M3085 6408 c-56 -12 -131 -64 -164 -112 -45 -67 -53 -95 -66 -236 -3
-36 -8 -81 -10 -100 -2 -19 -7 -71 -10 -115 -4 -44 -8 -87 -10 -95 -2 -8 -7
-49 -10 -90 -4 -41 -8 -76 -9 -76 -1 -2 -63 -7 -221 -19 -141 -11 -245 -16
-432 -20 -109 -3 -211 -8 -228 -11 -87 -18 -178 -98 -209 -183 -51 -143 10
-290 154 -367 31 -17 58 -19 265 -19 212 1 354 6 543 21 l72 6 -5 -48 c-2 -27
-7 -85 -11 -129 -3 -44 -7 -96 -9 -115 -2 -19 -7 -91 -11 -160 -3 -69 -8 -145
-10 -170 -2 -25 -6 -202 -10 -395 -3 -192 -9 -353 -13 -356 -3 -3 -31 -19 -61
-35 -94 -50 -319 -192 -445 -282 -101 -72 -293 -221 -331 -257 -6 -5 -42 -37
-79 -70 -181 -158 -488 -502 -572 -640 -36 -59 -87 -175 -105 -243 -32 -116
-31 -335 1 -450 112 -397 468 -659 879 -646 48 1 110 8 137 14 28 6 59 13 70
16 16 3 64 14 85 19 171 43 396 127 558 209 l90 44 50 -48 c64 -61 129 -84
221 -78 126 9 223 89 255 209 14 56 14 79 1 195 l-7 61 43 33 c138 107 336
293 485 456 152 166 363 457 473 652 116 208 226 464 283 663 18 63 37 117 42
120 14 11 141 -4 228 -27 141 -36 275 -112 384 -216 123 -119 173 -233 175
-404 2 -175 -35 -322 -133 -523 -207 -429 -629 -873 -1161 -1224 -74 -49 -128
-92 -147 -119 -140 -192 -6 -461 230 -462 79 -1 110 11 220 82 87 56 309 213
332 235 7 7 29 24 50 39 20 15 42 33 50 40 7 7 45 40 83 73 39 32 117 104 174
160 57 55 108 105 115 111 6 6 41 44 78 85 400 446 635 913 684 1359 2 14 4
75 4 135 1 113 -3 156 -26 281 -9 51 -48 162 -80 228 -152 321 -528 607 -906
690 -112 25 -118 26 -193 32 -110 8 -111 8 -113 51 -2 36 -5 58 -18 158 -21
161 -72 242 -184 294 -179 82 -387 -39 -406 -237 -4 -32 -1 -75 5 -97 14 -56
24 -175 14 -175 -4 0 -51 -7 -103 -15 -153 -24 -184 -30 -315 -61 -129 -30
-284 -76 -406 -120 -53 -19 -101 -34 -107 -34 -6 0 -9 38 -7 108 6 173 17 441
20 486 2 22 7 95 11 161 3 66 8 129 10 140 2 11 6 54 9 95 8 102 14 151 20
160 4 7 32 12 135 26 19 3 46 7 60 9 14 3 41 7 60 10 67 11 155 26 205 35 219
43 331 66 405 85 30 8 66 16 80 18 212 38 320 141 322 307 2 78 -22 137 -78
199 -86 96 -178 112 -364 66 -90 -23 -504 -108 -580 -119 -19 -3 -46 -8 -59
-10 -13 -3 -48 -8 -77 -12 l-55 -6 5 29 c3 15 8 64 12 108 3 44 8 87 9 95 7
40 19 192 19 245 -1 180 -177 313 -359 273z m1045 -2881 c0 -2 -18 -50 -41
-108 -113 -292 -339 -652 -564 -899 -70 -77 -182 -190 -188 -190 -2 0 -8 39
-11 88 -4 48 -9 103 -11 122 -3 37 -14 169 -20 260 -4 50 -11 188 -20 386 l-3
71 57 26 c202 92 582 212 741 234 19 3 37 7 39 9 5 5 21 5 21 1z m-1419 -644
c1 -38 2 -81 4 -98 1 -16 6 -70 9 -119 12 -149 16 -199 21 -246 3 -25 8 -72
10 -105 3 -33 10 -96 15 -140 5 -44 12 -105 15 -135 3 -30 8 -72 11 -92 l5
-36 -85 -51 c-169 -100 -379 -189 -569 -241 -153 -42 -202 -49 -268 -35 -169
33 -271 203 -222 369 40 137 423 547 721 774 94 71 314 222 325 222 4 0 8 -30
8 -67z"/>
</g>
</svg>
