<?xml version="1.0" standalone="no"?>
<!DOCTYPE svg PUBLIC "-//W3C//DTD SVG 20010904//EN"
 "http://www.w3.org/TR/2001/REC-SVG-20010904/DTD/svg10.dtd">
<svg version="1.0" xmlns="http://www.w3.org/2000/svg"
 width="700.000000pt" height="700.000000pt" viewBox="0 0 700.000000 700.000000"
 preserveAspectRatio="xMidYMid meet">
<metadata>
Created by potrace 1.14, written by Peter Selinger 2001-2017
</metadata>
<g transform="translate(0.000000,700.000000) scale(0.100000,-0.100000)"
fill="#000000" stroke="none">
<path d="M4717 5760 c-53 -42 -43 -125 18 -154 40 -19 46 -19 80 -4 58 26 71
103 26 149 -36 35 -86 39 -124 9z"/>
<path d="M3187 5499 c-222 -22 -512 -103 -722 -203 -667 -318 -1126 -945
-1231 -1683 -20 -139 -22 -423 -5 -558 66 -505 293 -962 652 -1310 176 -170
342 -287 564 -395 271 -133 520 -199 825 -220 983 -66 1904 554 2213 1490 25
74 50 159 57 188 l12 52 85 0 c80 0 86 2 114 29 28 29 29 32 29 134 l0 105
110 4 c104 3 111 4 137 31 l28 27 0 311 0 311 -33 29 c-31 28 -35 29 -137 29
l-105 0 0 106 c0 103 -1 106 -29 135 -26 26 -36 29 -90 29 l-61 0 0 305 0 305
38 19 c42 22 92 73 119 124 25 45 25 189 0 234 -55 102 -144 157 -252 157
-108 0 -197 -55 -252 -157 -25 -45 -25 -189 0 -234 27 -51 77 -102 119 -124
l38 -19 0 -268 0 -267 -58 110 c-113 215 -227 370 -397 540 -466 467 -1110
697 -1768 634z m550 -209 c643 -110 1171 -501 1467 -1087 30 -61 31 -63 12
-63 -8 0 -28 -12 -45 -26 -40 -33 -43 -89 -7 -131 l24 -28 201 -3 201 -3 0
-449 0 -449 -201 -3 -201 -3 -24 -28 c-36 -42 -33 -98 7 -131 27 -23 39 -26
106 -26 l75 0 -7 -37 c-14 -78 -78 -253 -135 -372 -294 -609 -872 -1029 -1536
-1116 -63 -8 -128 -15 -145 -15 l-29 0 0 450 0 450 340 0 c211 0 359 4 392 11
183 39 329 193 360 382 29 179 -70 380 -231 465 -108 58 -140 62 -518 62
l-343 0 0 1085 0 1085 59 0 c32 0 112 -9 178 -20z m1831 -226 c33 -37 30 -86
-9 -118 -17 -14 -41 -26 -54 -26 -38 0 -85 46 -85 84 0 85 92 122 148 60z
m-2810 -858 c66 -34 108 -113 97 -182 -18 -120 -147 -189 -254 -134 -129 65
-132 233 -6 311 36 23 124 25 163 5z m3112 -706 l0 -180 -45 0 -45 0 0 180 0
180 45 0 45 0 0 -180z m-2190 -640 l0 -90 -90 0 -90 0 0 90 0 90 90 0 90 0 0
-90z m360 0 l0 -90 -85 0 -85 0 0 90 0 90 85 0 85 0 0 -90z m230 53 c46 -30
82 -68 101 -105 l19 -38 -80 0 -80 0 0 80 c0 44 3 80 8 80 4 0 19 -7 32 -17z
m-590 -418 l0 -85 -90 0 -90 0 0 85 0 85 90 0 90 0 0 -85z m360 0 l0 -85 -85
0 -85 0 0 85 0 85 85 0 85 0 0 -85z m340 73 c0 -29 -112 -138 -142 -138 -4 0
-8 34 -8 75 l0 75 75 0 c50 0 75 -4 75 -12z"/>
<path d="M3752 4246 c-62 -63 -72 -79 -72 -109 0 -47 34 -86 81 -93 32 -6 41
-1 88 40 41 36 59 46 87 46 30 0 35 -3 29 -17 -35 -91 8 -193 100 -234 78 -36
168 -13 221 57 26 34 29 45 29 115 l0 77 112 4 c107 3 114 4 140 31 39 38 39
99 0 133 l-28 24 -358 0 -358 0 -71 -74z"/>
<path d="M734 5120 c-32 -13 -54 -50 -54 -91 0 -29 9 -47 44 -86 l45 -50 -44
-43 c-24 -23 -46 -54 -50 -67 -8 -32 20 -87 51 -102 46 -21 73 -13 124 35 l50
47 39 -36 c55 -49 78 -60 117 -53 42 8 74 48 74 93 0 27 -10 45 -46 83 l-47
50 47 50 c53 56 60 99 26 143 -43 54 -107 45 -172 -24 -15 -16 -30 -29 -35
-29 -4 0 -25 18 -48 40 -42 41 -85 56 -121 40z"/>
<path d="M5830 2308 c-37 -19 -60 -72 -49 -111 19 -68 101 -91 153 -42 74 68
-14 199 -104 153z"/>
</g>
</svg>
