<?xml version="1.0" encoding="UTF-8" standalone="no"?>
<!-- Uploaded to: SVG Repo, www.svgrepo.com, Transformed by: SVG Repo Mixer Tools -->

<svg
   fill="#000000"
   width="256px"
   height="256px"
   viewBox="-6.4 -6.4 76.80 76.80"
   stroke="#000000"
   stroke-width="0.00064"
   transform="matrix(-1, 0, 0, 1, 0, 0)rotate(0)"
   version="1.1"
   id="svg15"
   sodipodi:docname="logo-og.svg"
   inkscape:version="1.2.2 (1:1.2.2+202212051550+b0a8486541)"
   xmlns:inkscape="http://www.inkscape.org/namespaces/inkscape"
   xmlns:sodipodi="http://sodipodi.sourceforge.net/DTD/sodipodi-0.dtd"
   xmlns="http://www.w3.org/2000/svg"
   xmlns:svg="http://www.w3.org/2000/svg">
  <defs
     id="defs19" />
  <sodipodi:namedview
     id="namedview17"
     pagecolor="#ffffff"
     bordercolor="#999999"
     borderopacity="1"
     inkscape:showpageshadow="0"
     inkscape:pageopacity="0"
     inkscape:pagecheckerboard="0"
     inkscape:deskcolor="#d1d1d1"
     showgrid="false"
     inkscape:zoom="2.265625"
     inkscape:cx="55.834483"
     inkscape:cy="128.22069"
     inkscape:window-width="1366"
     inkscape:window-height="704"
     inkscape:window-x="0"
     inkscape:window-y="27"
     inkscape:window-maximized="1"
     inkscape:current-layer="robot" />
  <g
     id="SVGRepo_bgCarrier"
     stroke-width="0" />
  <g
     id="SVGRepo_iconCarrier">
    <g
       id="robot">
      <circle
         cx="46"
         cy="8"
         r="1"
         id="circle3"
         style="fill:#83f9a2;fill-opacity:1" />
      <path
         d="M5.7,14.4609a1,1,0,0,0-1.4141,0l-.7671.7674-.767-.7674A1,1,0,0,0,1.3379,15.875l.7673.7676-.7673.7676a1,1,0,1,0,1.4141,1.414l.767-.7673.7671.7673A1,1,0,0,0,5.7,17.41l-.7673-.7676L5.7,15.875A1,1,0,0,0,5.7,14.4609Z"
         id="path5"
         style="fill:#83f9a2;fill-opacity:1" />
      <path
         d="M58,45.0183a1,1,0,1,0,1,1A1,1,0,0,0,58,45.0183Z"
         id="path7"
         style="fill:#83f9a2;fill-opacity:1" />
      <path
         d="M43,23H36a.9993.9993,0,0,0-.707.293l-1,1a1,1,0,1,0,1.414,1.414L36.4141,25h.8633A1.98,1.98,0,0,0,37,26a2,2,0,0,0,4,0,1.98,1.98,0,0,0-.2774-1H43a1,1,0,0,0,0-2Z"
         id="path9"
         style="fill:#83f9a2;fill-opacity:1" />
      <path
         d="M59,28H57V26a1,1,0,0,0-1-1H55V18.2619a3,3,0,1,0-2,0v6.1833A24.013,24.013,0,1,0,54.4632,39H56a1,1,0,0,0,1-1V36h2a1,1,0,0,0,1-1V29A1,1,0,0,0,59,28ZM23,28a2,2,0,1,1,2-2A2,2,0,0,1,23,28ZM54,14.4443a1.001,1.001,0,1,1-1,1.001A1.0015,1.0015,0,0,1,54,14.4443ZM32,38h2v2H32Zm0,4h2v2H32Zm23-5H51a1,1,0,0,0,0,2h1.4109A21.981,21.981,0,0,1,32,55.9791V46h7a5,5,0,0,0,0-10H32V12.04A21.8524,21.8524,0,0,1,51.0606,25H51a1,1,0,0,0,0,2h4ZM38,42v2H36V42Zm-2-2V38h2v2Zm5.8157,2A2.9951,2.9951,0,0,1,40,43.8157V42ZM40,40V38.1843A2.9951,2.9951,0,0,1,41.8157,40Zm18-6H57V30h1Z"
         id="path11"
         style="fill:#83f9a2;fill-opacity:1" />
    </g>
  </g>
</svg>
